<svg width="746" height="529" viewBox="0 0 746 529" fill="none" xmlns="http://www.w3.org/2000/svg">
    <g clip-path="url(#clip0_40_25969)">
        <path d="M607.439 344.672L595.849 310.762L576.495 317.338L536.965 201.65L492.895 216.626L493.027 217.02L478.813 278.218L458.588 365.279L470.386 391.261L512 377.117L527.149 371.966L544.013 366.232L557.781 406.536L601.852 391.56L588.083 351.256L607.439 344.672ZM527.305 334.06L517.308 337.459L498.162 343.967L511.23 279.255L512.459 273.886L532.422 332.319L527.305 334.06Z" fill="#9DC2E7"/>
        <path opacity="0.25" d="M588.083 351.255L601.852 391.559L573.781 379.582L528.917 218.354L512.459 273.887L504.838 305.341L478.814 278.215L493.028 217.018L492.896 216.625L536.965 201.65L576.494 317.34L595.847 310.762L607.439 344.672L588.083 351.255Z" fill="#010101"/>
        <path opacity="0.25" d="M527.148 371.965L512 377.116L514.226 345.979V340.302L517.308 337.459L519.291 335.632L527.304 334.06C527.305 334.06 526.808 356.931 527.148 371.965Z" fill="#010101"/>
        <path d="M527.307 334.059C527.307 334.059 523.521 329.317 516.911 329.865C510.301 330.413 506.613 332.886 506.391 339.753C506.169 346.621 507.811 381.231 506.303 394.966C504.794 408.701 514.182 410.073 514.72 399.91C515.26 389.747 511.27 357.883 514.227 352.665C517.187 347.446 515.386 358.433 518.489 362.004C521.594 365.575 524.897 359.257 521.594 350.742C518.287 342.226 527.307 334.059 527.307 334.059Z" fill="url(#paint0_linear_40_25969)"/>
        <path d="M123.73 282.783C122.598 282.783 121.76 282.721 121.398 282.571C120.976 282.393 119.688 281.858 108.442 261.836L110.464 260.707C114.664 268.183 121.033 279.066 122.382 280.457C123.606 280.655 130.331 280.187 136.291 279.59L136.524 281.89C132.772 282.265 127.014 282.783 123.73 282.783Z" fill="#F26647"/>
        <path d="M164.497 292.492V293.163C164.497 293.163 163.883 305.872 154.343 305.323C154.319 305.323 154.297 305.317 154.273 305.317C148.374 304.936 141.072 302.191 136.176 300.151C133.099 298.868 130.966 297.862 130.73 297.902C130.109 298 137.955 330.553 137.85 332.407C137.839 332.656 137.781 332.922 137.694 333.194C137.138 334.957 135.197 337.072 134.032 337.246C133.91 337.264 133.661 337.038 133.308 336.598C129.761 332.2 115.721 306.654 115.338 298.312C114.927 289.146 119.573 283.625 125.873 282.573C130.52 281.799 144.11 283.666 150.917 284.7C153.335 285.07 154.893 285.33 154.893 285.33L164.497 292.492Z" fill="#0A2533"/>
        <path opacity="0.25" d="M137.851 332.407C137.84 332.656 137.782 332.921 137.695 333.194C137.139 334.957 135.198 337.071 134.033 337.246C133.911 337.264 133.663 337.038 133.31 336.597C138.305 329.563 125.248 295.318 128.088 295.22C129.489 295.174 132.59 297.55 136.177 300.151C133.101 298.868 130.968 297.862 130.731 297.902C130.11 298 137.956 330.552 137.851 332.407Z" fill="#010101"/>
        <path opacity="0.25" d="M164.497 292.492V293.162C164.497 293.162 163.883 305.871 154.343 305.323C156.22 303.827 156.568 301.191 156.428 298C156.267 294.306 152.841 287.984 150.917 284.701C153.335 285.071 154.893 285.331 154.893 285.331L164.497 292.492Z" fill="#010101"/>
        <path d="M144.197 250.761C143.879 251.259 143.67 251.675 143.67 251.992C143.67 251.992 143.658 251.973 143.636 251.934C143.525 251.738 143.125 251.05 142.611 250.252C141.741 248.911 140.541 247.246 139.817 247.043C138.652 246.725 135.552 250.631 131.362 250.944C131.084 250.969 130.807 250.973 130.522 250.963C125.91 250.754 121.018 244.23 124.947 236.542C126.321 239.357 129.143 239.426 129.143 239.426C129.143 239.426 127.421 239.08 127.358 236.952C132.381 237.842 134.996 234.068 139.336 235.443C143.67 236.812 143.399 239.425 143.399 239.425C143.399 239.425 146.701 238.118 147.732 242.239C148.56 245.536 145.472 248.784 144.197 250.761Z" fill="#0A2533"/>
        <path d="M143.636 251.935C143.341 252.975 142.777 254.109 142.018 255.026C141.098 256.149 139.881 256.969 138.507 256.935C135.575 256.866 132.659 252.941 131.362 250.945C135.552 250.634 138.652 246.728 139.816 247.044C140.541 247.247 141.74 248.911 142.611 250.253C143.124 251.051 143.525 251.739 143.636 251.935Z" fill="url(#paint1_linear_40_25969)"/>
        <path d="M147.871 252.332C147.871 252.332 145.669 257.35 144.841 256.251C144.395 255.656 143.108 255.264 142.019 255.025C142.779 254.107 143.341 252.973 143.636 251.934C143.66 251.973 143.67 251.992 143.67 251.992C143.67 251.673 143.879 251.257 144.197 250.761C145.796 251.964 147.871 252.332 147.871 252.332Z" fill="url(#paint2_linear_40_25969)"/>
        <path d="M163.361 294.706C159.849 294.192 150.352 283.892 150.352 279.459C150.352 278.834 150.282 278.14 150.166 277.385C149.437 272.772 146.766 266.009 145.653 261.229C144.361 255.669 146.22 253.588 146.22 253.588C150.543 246.173 160.327 260.871 165.907 272.656L165.914 272.662C167.79 276.633 169.032 280.32 169.147 282.789C169.546 291.133 166.873 295.22 163.361 294.706Z" fill="#5462AD"/>
        <path opacity="0.25" d="M163.361 294.706C159.849 294.192 150.352 283.892 150.352 279.459C150.352 278.834 150.282 278.14 150.166 277.385L150.144 275.408L153.585 257.42C153.585 257.42 158.337 263.056 159.096 273.148C159.849 283.239 170.989 285.436 165.912 272.663C167.789 276.633 169.031 280.32 169.145 282.789C169.546 291.133 166.873 295.221 163.361 294.706Z" fill="#010101"/>
        <path d="M155.995 272.459C155.903 272.538 155.74 272.602 155.526 272.661C153.898 273.11 149.152 273.042 147.175 272.655C146.881 272.597 146.642 272.528 146.492 272.459C145.189 271.84 146.492 270.327 146.081 267.65C145.669 264.968 144.637 257.142 148.63 254.737C152.807 252.223 155.855 261.741 155.995 266.482C156.135 271.223 156.894 271.702 155.995 272.459Z" fill="#5462AD"/>
        <path d="M155.526 272.661C155.526 272.661 155.336 284.238 153.121 289.7C153.121 289.706 153.121 289.706 153.121 289.711C152.431 291.411 151.545 292.515 150.403 292.492C145.6 292.388 134.81 281.008 133.825 280.592C132.846 280.181 127.938 280.904 128.094 280.181C128.25 279.459 130.162 277.862 132.225 277.094C134.294 276.321 133.929 276.782 147.199 282.863C147.019 281.696 147.094 276.644 147.152 273.783C147.159 273.349 147.171 272.968 147.176 272.656C149.153 273.042 153.897 273.111 155.526 272.661Z" fill="url(#paint3_linear_40_25969)"/>
        <path d="M141.809 340.233C142.146 342.297 128.249 356.405 128.973 352.7C129.691 348.99 134.032 337.245 134.032 337.245C135.197 337.07 137.138 334.957 137.694 333.193C138.831 335.158 141.526 338.522 141.809 340.233Z" fill="#5462AD"/>
        <path opacity="0.25" d="M154.344 296.904C154.344 296.904 132.037 292.726 127.63 294.747C123.224 296.766 135.692 331.926 135.692 331.926" stroke="white" stroke-width="0.4597" stroke-miterlimit="10"/>
        <path opacity="0.25" d="M153.121 289.7C153.545 287.376 153.863 280.619 152.692 277.949C151.905 276.145 148.973 274.596 147.151 273.783C147.158 273.349 147.17 272.968 147.175 272.656C149.152 273.043 153.897 273.111 155.526 272.663C155.526 272.661 155.336 284.238 153.121 289.7Z" fill="#010101"/>
        <path d="M513.63 211.4C513.179 213.134 512.425 215.365 511.254 218.353C509.585 222.636 507.064 228.473 503.349 236.611C503.257 240.745 501.936 267.106 501.577 273.174C501.531 273.915 501.502 274.353 501.49 274.411C501.439 274.677 500.482 275.186 499.439 275.446C498.454 275.7 497.4 275.734 496.946 275.133C496.013 273.897 489.715 248.967 489.409 243.097C489.096 237.224 488.788 238.565 496.013 215.186C494.258 216.007 482.877 215.7 482.877 215.7C482.877 215.7 484.963 244.333 484.974 244.54C484.974 244.569 484.956 244.638 484.916 244.736C484.784 245.13 484.365 246.003 483.914 246.442C483.711 246.643 483.502 246.759 483.31 246.701C483.201 246.674 482.933 246.43 482.546 246.02C480.362 243.707 474.37 235.928 471.124 228.674C467.305 220.125 466.371 214.148 469.988 208.178C473.605 202.203 491.916 201.745 491.916 201.745C493.075 202.068 495.74 202.386 498.377 203.011C499.153 203.191 499.93 203.404 500.661 203.647C504.672 204.976 512.314 206.663 513.96 205.716C514.326 206.991 514.406 208.482 513.63 211.4Z" fill="#6561AB"/>
        <path d="M528.807 191.495C528.083 191.905 519.669 191.593 513.983 189.431C514.012 190.43 514.139 192.003 514.284 193.789C514.511 196.604 514.772 199.951 514.708 202.39C514.672 204.13 514.471 205.412 513.983 205.708C513.977 205.714 513.972 205.719 513.959 205.719C513.085 206.222 510.523 205.979 507.707 205.447C505.887 205.1 503.963 204.633 502.323 204.164C501.726 203.99 501.165 203.818 500.661 203.649C497.439 202.575 493.418 202.163 491.916 201.747C491.539 201.643 491.324 201.545 491.312 201.429C491.266 200.862 492.708 199.58 493.387 198.238C493.467 198.071 493.577 197.822 493.699 197.504C494.25 196.1 495.113 193.441 495.531 191.748C495.779 190.748 495.872 190.089 495.653 190.204C494.981 190.562 491.004 197.978 490.54 197.978C490.379 197.978 489.579 197.522 488.628 196.879C487.029 195.798 485.018 194.209 484.972 193.452C484.96 193.348 484.989 193.261 485.065 193.192C485.998 192.313 493.119 180.366 495.703 177.818C496.915 176.615 498.347 175.893 499.511 175.465C500.815 174.98 501.8 174.87 501.8 174.87C503.336 174.817 504.882 175.02 506.39 175.401C511.512 176.679 516.213 179.905 518.89 181.499C522.349 183.557 524.725 182.991 525.599 183.505C526.483 184.027 529.525 191.079 528.807 191.495Z" fill="#F26647"/>
        <path d="M514.708 202.39C509.945 202.448 499.356 202.025 493.701 197.506C494.252 196.101 495.115 193.442 495.532 191.749C495.532 191.749 506.71 195.129 514.284 193.789C514.511 196.604 514.772 199.951 514.708 202.39Z" fill="#F69181"/>
        <path opacity="0.25" d="M506.392 175.404C506.208 177.38 505.506 179.507 503.349 179.34C500.308 179.104 499.652 176.623 499.514 175.468C500.817 174.983 501.803 174.872 501.803 174.872C503.338 174.819 504.885 175.022 506.392 175.404Z" fill="#010101"/>
        <path d="M505.105 171.097C505.105 171.097 504.59 168.987 503.552 167.901C502.713 169.265 499.473 169.964 496.975 170.144C495.793 170.231 494.773 170.202 494.258 170.068C492.502 163.266 497.977 160.282 501.026 160.075C504.068 159.866 506.809 162.127 505.981 165.578C508.715 168.266 505.105 171.097 505.105 171.097Z" fill="#321212"/>
        <path d="M505.105 171.097C504.949 171.548 504.706 172.34 504.289 173.079H504.282C503.599 174.31 502.452 175.403 500.464 174.599C500.395 174.57 500.326 174.541 500.261 174.507C498.587 173.749 497.718 172.276 497.278 171.114C497.139 170.75 497.041 170.415 496.977 170.144C499.474 169.964 502.714 169.265 503.554 167.901C503.6 167.954 503.647 168.005 503.692 168.057C504.637 169.178 505.105 171.097 505.105 171.097Z" fill="url(#paint4_linear_40_25969)"/>
        <path d="M504.845 176.351C504.538 178.258 501.386 178.155 501.043 176.918C500.863 176.276 500.66 175.658 500.504 175.207C500.365 174.785 500.26 174.513 500.26 174.513V174.508C500.325 174.541 500.394 174.57 500.463 174.599C502.451 175.403 503.598 174.311 504.281 173.079H504.288C504.073 173.507 504.647 174.045 504.838 175.056C504.909 175.42 504.927 175.849 504.845 176.351Z" fill="url(#paint5_linear_40_25969)"/>
        <path d="M488.474 251.855C488.167 254.224 475.876 263.495 476.085 261.848C476.287 260.2 482.546 246.022 482.546 246.022C482.935 246.432 483.202 246.676 483.31 246.704C483.93 246.884 484.718 245.311 484.915 244.739C486.567 246.808 488.752 249.739 488.474 251.855Z" fill="#262166"/>
        <path d="M496.945 294.435C494.053 288.249 496.945 275.134 496.945 275.134C497.873 276.371 501.384 274.927 501.488 274.413C501.5 274.355 501.528 273.915 501.575 273.176C501.575 273.176 502.038 279.459 502.589 284.782C503.14 290.105 499.838 300.613 496.945 294.435Z" fill="#262166"/>
        <path opacity="0.25" d="M496.012 215.187C494.256 216.008 482.875 215.701 482.875 215.701C482.875 215.701 484.961 244.334 484.973 244.541C484.973 244.57 484.955 244.639 484.915 244.737C484.782 245.131 484.364 246.005 483.913 246.443C481.815 236.646 477.632 217.861 480.968 214.636C485.24 210.515 496.806 209.418 496.974 210.319C497.143 211.227 496.012 215.187 496.012 215.187Z" fill="#010101"/>
        <path d="M487.824 201.656C487.656 202.003 487.569 202.292 487.622 202.483C487.871 203.442 486.55 215.458 487.031 216.696C487.512 217.933 487.79 221.845 487.511 224.319C487.233 226.793 482.071 228.302 482.071 226.175C482.071 224.043 482.691 219.031 482.899 217.107C483.107 215.188 481.179 201.281 481.694 199.356C482.031 198.101 483.323 195.976 484.18 194.652C484.638 193.941 484.974 193.455 484.974 193.455C485.051 194.662 490.121 197.981 490.543 197.981C490.542 197.98 488.502 200.258 487.824 201.656Z" fill="url(#paint6_linear_40_25969)"/>
        <path opacity="0.25" d="M513.63 211.4C511.352 211.233 508.791 210.239 507.006 208.452C504.931 206.383 501.471 204.464 498.377 203.013C499.153 203.193 499.93 203.407 500.661 203.65C504.672 204.978 512.314 206.666 513.96 205.719C514.326 206.991 514.407 208.482 513.63 211.4Z" fill="#010101"/>
        <path opacity="0.25" d="M511.254 218.354C509.585 222.637 507.064 228.474 503.349 236.612C503.257 240.746 501.936 267.107 501.577 273.175C501.531 273.916 501.502 274.355 501.49 274.412C501.439 274.678 500.482 275.187 499.439 275.447C499.676 266.557 499.364 247.207 500.871 241.45C502.671 234.56 510.75 219.302 511.254 218.354Z" fill="#010101"/>
        <path opacity="0.25" d="M502.324 204.164C501.726 203.99 501.165 203.818 500.661 203.649C497.439 202.575 493.418 202.163 491.916 201.747C491.539 201.643 491.325 201.545 491.312 201.429C491.267 200.862 492.709 199.58 493.387 198.238C494.059 196.897 496.325 189.84 495.653 190.204C494.981 190.562 491.004 197.978 490.541 197.978C490.379 197.978 489.579 197.522 488.628 196.879C488.727 196.712 488.836 196.544 488.959 196.365C491.434 192.724 495.497 188.193 496.185 184.28C496.736 181.396 497.564 183.043 497.424 186.754C497.301 190.084 497.12 200.28 502.324 204.164Z" fill="#010101"/>
        <path opacity="0.25" d="M513.983 205.708C513.977 205.714 513.972 205.719 513.959 205.719C513.085 206.222 510.523 205.979 507.707 205.447C512.743 200.414 509.995 186.778 510.784 187.478C511.71 188.299 513.982 189.432 513.982 189.432C514.088 193.142 515.589 204.731 513.983 205.708Z" fill="#010101"/>
        <path opacity="0.25" d="M490.542 197.98C490.542 197.98 488.502 200.258 487.824 201.656C487.806 201.349 487.785 201.066 487.755 200.812C487.598 199.339 485.298 196.135 484.179 194.65C484.636 193.94 484.973 193.454 484.973 193.454C485.05 194.662 490.119 197.98 490.542 197.98Z" fill="#010101"/>
        <path opacity="0.25" d="M503.691 168.057C502.452 170.791 498.807 171.108 497.276 171.114C497.138 170.75 497.039 170.415 496.975 170.144C499.472 169.964 502.713 169.265 503.552 167.901C503.599 167.954 503.646 168.005 503.691 168.057Z" fill="#010101"/>
        <path opacity="0.25" d="M504.838 175.057C504.606 175.237 504.324 175.37 503.97 175.45C502.307 175.826 501.136 175.503 500.504 175.208C500.366 174.787 500.261 174.514 500.261 174.514V174.509C500.326 174.543 500.395 174.572 500.464 174.601C502.452 175.404 503.599 174.313 504.282 173.081H504.288C504.074 173.508 504.648 174.045 504.838 175.057Z" fill="#010101"/>
        <path d="M532.162 187.819C532.15 187.888 532.134 187.957 532.121 188.021C531.438 191.125 528.946 191.455 528.476 191.252C528.007 191.05 526.767 189.628 525.683 184.618C525.659 184.519 525.642 184.421 525.619 184.317C525.619 184.317 523.278 178.329 522.177 175.45C519.46 173.844 518.944 174.497 518.561 172.642C518.184 170.786 519.39 168.387 520.08 168.04C520.769 167.7 523.864 170.584 524.281 171.647C524.692 172.71 532.782 184.524 532.162 187.819Z" fill="url(#paint7_linear_40_25969)"/>
        <path opacity="0.25" d="M532.121 188.021C531.438 191.125 528.946 191.455 528.476 191.252C528.007 191.05 526.767 189.628 525.683 184.618C526.372 186.01 527.433 187.814 528.598 188.559C529.877 189.373 531.316 189.114 532.121 188.021Z" fill="#010101"/>
        <path d="M440.88 350.285L434.238 316.456C429.325 291.435 419.85 273.183 405.815 261.691C391.773 250.206 374.43 246.479 353.782 250.513C333.134 254.547 318.491 264.477 309.862 280.295C301.227 296.121 299.373 316.587 304.304 341.695L310.968 375.653C315.865 400.587 325.329 418.799 339.369 430.283C345.298 435.132 351.823 438.599 358.945 440.676C368.686 443.526 379.546 443.774 391.523 441.438C397.73 440.23 403.398 438.479 408.514 436.189C420.358 430.895 429.294 422.729 435.321 411.678C443.957 395.853 445.806 375.386 440.88 350.285ZM399.423 395.691C397.151 402.628 392.348 406.812 385.01 408.246C377.413 409.73 371.241 407.603 366.479 401.859C363.233 397.945 360.457 392.137 358.156 384.433C358.156 384.427 358.156 384.42 358.156 384.42C358.151 384.409 358.151 384.396 358.144 384.38C357.078 380.808 356.116 376.825 355.258 372.439L345.935 324.947C343.751 312.473 343.745 302.844 345.911 296.058C348.079 289.274 352.877 285.151 360.3 283.707C365.962 282.597 370.846 283.551 374.949 286.557H374.955C376.352 287.585 377.66 288.845 378.878 290.349C383.67 296.261 387.379 305.903 389.998 319.259L399.021 365.215C401.562 378.594 401.695 388.749 399.423 395.691Z" fill="#F26647"/>
        <path opacity="0.25" d="M402.755 402.037C404.669 404.974 407.211 424.937 408.516 436.191C403.398 438.48 397.73 440.231 391.524 441.439C379.547 443.774 368.687 443.526 358.946 440.678C359.344 439.781 359.71 438.845 360.022 437.885C366.102 419.36 358.505 385.936 358.157 384.433C360.457 392.137 363.233 397.945 366.48 401.859C371.242 407.603 377.414 409.73 385.011 408.245C392.347 406.811 397.152 402.627 399.424 395.691C401.696 388.75 401.561 378.594 399.024 365.214L390.002 319.258C387.382 305.902 383.673 296.26 378.882 290.347C377.664 288.845 376.356 287.585 374.959 286.556C389.615 289.422 401.517 334.679 406.477 356.51C411.431 378.345 411.848 388.443 402.755 402.037Z" fill="#010101"/>
        <path d="M361.39 393.312C361.39 393.312 362.341 395.79 367.332 397.163C372.325 398.536 377.006 390.834 380.311 393.312C383.616 395.79 388.905 406.06 393.559 404.497C398.213 402.933 399.589 427.654 397.387 430.401C395.184 433.148 393.599 410.946 387.782 411.61C381.964 412.271 386.37 429.027 383.065 432.049C379.76 435.072 381.138 424.633 377.558 422.71C373.977 420.787 381.414 506.764 375.905 508.137C370.396 509.511 366.816 504.291 369.02 485.888C371.223 467.485 368.468 404.031 365.163 400.735C361.86 397.439 362.067 396.82 361.39 393.312Z" fill="#6561AB"/>
        <path d="M431.519 145.758C431.519 145.758 427.131 133.758 427.491 132.83C427.853 131.903 432.673 130.152 433.027 130.666C433.379 131.182 436.426 140.504 435.909 141.173C435.392 141.843 431.519 145.758 431.519 145.758Z" fill="#262166"/>
        <path d="M358.502 130.021C358.502 130.021 361.181 131.129 362.372 134.014C363.562 136.898 363.098 126.495 363.098 126.495L361.807 125.311L358.502 130.021Z" fill="url(#paint8_linear_40_25969)"/>
        <path d="M357.108 130.021C357.108 130.021 360.465 132.519 361.033 132.674C361.601 132.828 362.697 126.287 362.202 125.258C361.704 124.227 359.885 123.197 358.704 123.867C357.522 124.537 356.559 129.616 357.108 130.021Z" fill="url(#paint9_linear_40_25969)"/>
        <path d="M366.043 130.769C366.043 130.769 363.369 124.589 362.202 123.508C361.033 122.426 358.865 123.817 358.709 124.383C358.553 124.948 361.303 125.361 362.202 126.289C363.099 127.216 360.672 134.066 362.996 136.487C365.319 138.907 366.043 130.769 366.043 130.769Z" fill="url(#paint10_linear_40_25969)"/>
        <path d="M428.215 147.147C428.215 147.147 430.59 145.859 431.106 145.189C431.622 144.519 430.693 141.996 432.19 139.679C433.688 137.361 436.889 138.031 437.663 140.812C438.439 143.593 436.426 147.095 435.495 148.176C434.565 149.258 428.215 153.79 428.215 153.79" fill="url(#paint11_linear_40_25969)"/>
        <path d="M429.917 152.52C429.847 152.931 429.424 153.635 428.602 154.596C425.588 158.11 417.284 164.988 402.316 172.849C402.021 174.051 401.789 175.277 401.615 176.501C401.059 180.414 401.069 184.368 401.256 187.922C401.301 188.836 401.359 189.726 401.423 190.581C401.697 194.326 402.067 197.419 401.969 199.21C401.923 199.996 401.784 200.528 401.518 200.764C401.181 201.058 400.827 201.325 400.457 201.562C392.981 206.349 379.374 199.199 377.172 197.048C376.998 196.881 376.893 196.741 376.872 196.643C376.489 195.199 377.972 193.655 378.8 191.181C378.939 190.759 379.079 189.816 379.217 188.528C379.612 184.718 379.954 177.904 380.076 172.778C380.145 169.505 380.128 166.923 379.978 166.24C379.971 166.229 379.971 166.216 379.971 166.216C379.56 164.534 367.025 145.646 363.265 138.952C362.575 137.733 362.182 136.918 362.203 136.687C362.342 135.178 365.234 129.821 365.854 129.891C365.958 129.902 366.342 130.382 366.92 131.179C369.824 135.202 377.636 147.363 379.072 148.912C380.417 150.363 387.261 157.548 390.194 160.628C391.022 161.489 391.537 162.032 391.537 162.032C393.126 162.003 394.718 161.859 396.312 161.611C410.399 159.444 424.243 149.606 427.866 146.872C428.462 146.422 428.782 146.166 428.782 146.166C428.782 146.166 430.229 150.597 429.917 152.52Z" fill="#F47920"/>
        <path d="M394.761 168.247C389.956 169.021 389.943 162.785 390.192 160.629C391.02 161.49 391.536 162.033 391.536 162.033C393.124 162.005 394.716 161.86 396.311 161.612C396.908 164.069 396.429 167.981 394.761 168.247Z" fill="#C54527"/>
        <path d="M399.626 154.879C398.693 155.439 397.475 155.63 395.922 155.231C394.729 154.93 393.331 154.278 391.702 153.173C391.702 153.173 390.415 154.716 390.312 157.548C386.904 154.612 386.076 151.675 388.967 150.594C387.78 145.445 390.312 144.363 394.542 144.109C398.779 143.849 399.758 148.178 402.289 148.075C402.443 150.383 401.787 153.601 399.626 154.879Z" fill="#262166"/>
        <path d="M399.626 154.879C399.579 155.295 399.51 155.774 399.412 156.289C398.843 159.301 397.36 163.503 395.123 163.272C395.008 163.267 394.887 163.243 394.758 163.203C392.747 162.573 391.536 160.625 390.905 159.192C390.487 158.262 390.313 157.55 390.313 157.55C390.348 156.655 390.498 155.886 390.69 155.256C391.101 153.897 391.704 153.175 391.704 153.175C393.332 154.279 394.729 154.933 395.924 155.233C397.476 155.63 398.693 155.439 399.626 154.879Z" fill="url(#paint12_linear_40_25969)"/>
        <path d="M395.123 165.046C395.1 166.138 394.949 166.993 394.22 167.045C392.741 167.149 390.777 165.224 390.882 163.132C390.916 162.422 390.929 161.665 390.929 160.971C390.929 160.271 390.916 159.636 390.905 159.191C391.536 160.624 392.747 162.572 394.758 163.201C394.886 163.242 395.007 163.266 395.123 163.271C395.117 163.879 395.141 164.491 395.123 165.046Z" fill="url(#paint13_linear_40_25969)"/>
        <path d="M429.917 152.52C429.847 152.931 429.424 153.635 428.602 154.596C428.641 152.139 428.103 148.412 427.866 146.873C428.462 146.423 428.782 146.167 428.782 146.167C428.782 146.167 430.229 150.597 429.917 152.52Z" fill="#C54527"/>
        <path d="M366.919 131.182C364.718 133.06 363.644 137.153 363.263 138.956C362.574 137.737 362.181 136.922 362.202 136.691C362.341 135.182 365.232 129.825 365.852 129.894C365.958 129.904 366.34 130.383 366.919 131.182Z" fill="#C54527"/>
        <path d="M401.422 190.581C396.497 191.291 387.23 191.922 379.216 188.529C379.61 184.72 379.952 177.906 380.074 172.779C384.043 174.455 392.613 177.437 401.615 176.5C400.912 181.421 401.109 186.408 401.422 190.581Z" fill="#FCAF17"/>
        <path opacity="0.25" d="M400.455 201.564C392.399 206.719 377.228 198.021 376.87 196.644C376.487 195.2 377.971 193.656 378.799 191.182C378.937 190.76 379.077 189.818 379.216 188.529C379.61 184.72 379.952 177.906 380.074 172.779C380.144 169.506 380.126 166.924 379.976 166.241C380.15 166.773 382.874 175.385 384.269 183.765C385.717 192.417 385.405 196.54 389.641 199.32C392.121 200.944 396.647 201.8 400.455 201.564Z" fill="#010101"/>
        <path d="M418.864 225.347C418.864 228.919 405.918 248.71 403.237 252.772C402.929 253.241 402.755 253.501 402.755 253.501C402.755 253.501 401.087 253.31 399.713 252.848C398.757 252.517 397.94 252.067 397.94 251.443C397.94 251.315 397.964 251.119 398.005 250.859C398.462 248.102 401.307 238.126 404.959 224.936C403.035 222.602 389.539 213.672 389.539 213.672C389.539 213.672 389.533 213.683 389.527 213.706C388.942 215.052 370.207 258.262 368.08 262.292C368.004 262.436 367.951 262.528 367.917 262.57C366.955 263.807 362.962 263.94 362.685 261.332C362.685 261.327 362.685 261.327 362.685 261.321C361.538 250.399 370.982 217.451 375.382 202.881C376.169 200.269 376.795 198.246 377.171 197.049C379.373 199.199 392.98 206.349 400.456 201.564C400.827 201.326 401.181 201.061 401.518 200.765C401.784 200.529 401.922 199.997 401.969 199.211C402.108 199.361 402.254 199.523 402.397 199.697C407.611 205.643 418.864 221.908 418.864 225.347Z" fill="#9DC2E7"/>
        <path d="M369.399 268.338C368.884 270.91 355.248 278.533 356.49 273.921C357.498 270.181 361.287 263.656 362.684 261.321C362.684 261.327 362.684 261.327 362.684 261.332C362.962 263.94 366.955 263.808 367.916 262.569C367.95 262.529 368.003 262.437 368.078 262.292C368.774 264.281 369.736 266.673 369.399 268.338Z" fill="#262166"/>
        <path d="M407.716 266.071C406.678 266.586 393.257 261.436 393.564 259.684C393.877 257.933 398.002 250.859 398.002 250.859C397.962 251.119 397.938 251.315 397.938 251.443C397.938 252.951 402.753 253.501 402.753 253.501C402.753 253.501 402.927 253.241 403.235 252.772C403.833 258.119 408.684 265.587 407.716 266.071Z" fill="#262166"/>
        <path opacity="0.25" d="M387.782 212.197C387.782 212.197 372.91 241.328 367.332 261.321" stroke="#010101" stroke-width="0.4597" stroke-miterlimit="10"/>
        <path opacity="0.25" d="M391.292 212.197C391.292 212.197 407.816 223.013 408.438 224.764C409.056 226.515 399.865 250.86 399.865 250.86" stroke="#010101" stroke-width="0.4597" stroke-miterlimit="10"/>
        <path opacity="0.25" d="M402.396 199.696C400.578 206.943 390.041 204.973 384.653 203.58C381.518 202.771 377.924 202.742 375.382 202.88C376.17 200.268 376.795 198.245 377.172 197.048C379.374 199.198 392.981 206.347 400.457 201.562C400.827 201.325 401.181 201.06 401.518 200.764C401.784 200.528 401.923 199.996 401.969 199.21C402.107 199.361 402.252 199.523 402.396 199.696Z" fill="#010101"/>
        <path opacity="0.25" d="M399.713 252.849C398.757 252.518 397.941 252.068 397.941 251.444C397.941 251.316 397.965 251.12 398.005 250.86C398.463 248.103 401.307 238.127 404.959 224.938C403.036 222.603 389.54 213.673 389.54 213.673C389.54 213.673 390.64 209.968 391.88 209.691C393.119 209.42 407.44 221.708 409.022 224.251C410.417 226.485 400.665 244.727 399.713 252.849Z" fill="#010101"/>
        <path opacity="0.25" d="M399.626 154.879C399.579 155.295 399.51 155.774 399.412 156.289C395.802 158.122 392.26 153.995 391.837 154.046C391.594 154.075 391.095 154.7 390.69 155.254C391.101 153.895 391.704 153.174 391.704 153.174C393.332 154.278 394.729 154.931 395.924 155.232C397.476 155.63 398.693 155.439 399.626 154.879Z" fill="#010101"/>
        <path opacity="0.25" d="M395.123 165.046C392.741 164.467 391.425 162.086 390.928 160.971C390.928 160.271 390.916 159.636 390.904 159.191C391.536 160.624 392.747 162.572 394.758 163.201C394.886 163.242 395.007 163.266 395.123 163.271C395.117 163.879 395.141 164.491 395.123 165.046Z" fill="#010101"/>
        <path opacity="0.25" d="M401.615 176.501C401.059 180.414 401.069 184.368 401.255 187.922C400.316 183.974 399.495 179.731 400.455 177.276C402.111 173.045 402.292 172.849 402.315 172.849C402.019 174.051 401.787 175.276 401.615 176.501Z" fill="#010101"/>
        <path d="M285.668 215.915L241.082 208.273L241.013 208.672L142.55 319.241L140.517 346.88L154.64 349.302L179.083 353.492L211.893 359.117L215.012 359.648L212.665 373.283L211.576 379.59L207.988 400.426L237.008 405.402L252.575 408.067L259.597 367.29L279.184 370.641L285.094 336.326L265.508 332.974L285.668 215.915ZM230.009 272.574L220.916 325.333L210.039 323.466L186.25 319.393L199.422 303.712L202.436 300.122L227.551 270.223L231.103 266.213L230.009 272.574Z" fill="#6561AB"/>
        <path opacity="0.25" d="M211.893 359.116L179.083 353.492C182.948 340.759 187.77 323.211 186.251 319.391L210.04 323.465C211.564 325.998 212.769 329.482 213.095 334.263C213.673 342.725 212.409 351.366 211.893 359.116Z" fill="#010101"/>
        <path d="M187.67 319.638C187.67 319.638 191.248 314.687 199.303 316.233C207.359 317.78 207.979 327.669 204.467 338.588C200.956 349.506 200.13 387.619 201.781 399.979C203.435 412.34 202.402 418.11 198.478 418.521C194.554 418.933 192.693 403.687 194.966 392.976C197.239 382.263 197.032 372.374 193.313 374.022C189.595 375.671 192.693 379.791 190.834 383.499C188.975 387.206 183.398 384.941 183.605 377.936C183.812 370.93 195.042 325.408 187.67 319.638Z" fill="#9DC2E7"/>
        <path opacity="0.25" d="M265.508 332.974L285.094 336.326L279.184 370.641L259.597 367.29L252.574 408.067L237.008 405.401L264.367 235.139L285.668 215.915L265.508 332.974Z" fill="#010101"/>
        <path d="M327.158 174.277C331.607 174.277 335.214 170.68 335.214 166.243C335.214 161.805 331.607 158.208 327.158 158.208C322.709 158.208 319.102 161.805 319.102 166.243C319.102 170.68 322.709 174.277 327.158 174.277Z" fill="#F47920"/>
        <path d="M607.439 276.382C611.888 276.382 615.494 272.785 615.494 268.348C615.494 263.91 611.888 260.313 607.439 260.313C602.989 260.313 599.383 263.91 599.383 268.348C599.383 272.785 602.989 276.382 607.439 276.382Z" fill="#6561AB"/>
        <path d="M186.251 217.72C190.7 217.72 194.307 214.123 194.307 209.685C194.307 205.248 190.7 201.65 186.251 201.65C181.802 201.65 178.195 205.248 178.195 209.685C178.195 214.123 181.802 217.72 186.251 217.72Z" fill="#9DC2E7"/>
        <path d="M319.104 463.432C323.553 463.432 327.159 459.834 327.159 455.397C327.159 450.959 323.553 447.362 319.104 447.362C314.655 447.362 311.048 450.959 311.048 455.397C311.048 459.834 314.655 463.432 319.104 463.432Z" fill="#F26647"/>
        <path d="M561.388 193.528C563.104 193.528 564.495 192.14 564.495 190.429C564.495 188.717 563.104 187.33 561.388 187.33C559.672 187.33 558.281 188.717 558.281 190.429C558.281 192.14 559.672 193.528 561.388 193.528Z" fill="#F47920"/>
        <path d="M324.051 241.783C325.767 241.783 327.158 240.395 327.158 238.684C327.158 236.972 325.767 235.585 324.051 235.585C322.335 235.585 320.944 236.972 320.944 238.684C320.944 240.395 322.335 241.783 324.051 241.783Z" fill="#9DC2E7"/>
        <path d="M231.103 199.823C232.819 199.823 234.21 198.435 234.21 196.724C234.21 195.012 232.819 193.625 231.103 193.625C229.387 193.625 227.996 195.012 227.996 196.724C227.996 198.435 229.387 199.823 231.103 199.823Z" fill="#6561AB"/>
        <path d="M651.446 26.8865C651.446 26.8865 639.029 14.5257 615.495 19.4703C591.959 24.4148 575.418 61.4973 558.283 69.737C541.146 77.978 507.364 102.311 504.839 123.107C537.843 95.6958 550.236 107.644 571.717 104.348C593.198 101.051 594.85 75.9174 625.834 76.7422C656.817 77.5656 689.866 115.963 720.848 94.4989C751.831 73.0347 788.184 47.4883 758.853 26.4754C729.522 5.46248 670.036 37.5991 651.446 26.8865Z" fill="url(#paint14_linear_40_25969)"/>
        <path d="M148.704 110.432C148.704 110.432 145.472 127.629 162.838 144.226C180.202 160.824 220.235 153.537 236.721 163.004C253.207 172.471 292.405 186.577 311.048 176.928C269.74 165.202 272.645 148.256 257.801 132.42C242.959 116.586 221.217 129.398 204.427 103.414C187.638 77.4286 200.791 28.5548 165.548 15.1392C130.303 1.72359 88.6507 -13.8142 87.7923 22.1946C86.9339 58.2035 147.09 89.0779 148.704 110.432Z" fill="url(#paint15_linear_40_25969)"/>
        <path d="M748.525 209.025C748.525 209.025 698.127 264.176 687.385 328.839C676.644 393.503 624.982 389.382 607.438 419.872C589.892 450.362 548.079 452.835 528.915 465.195C509.75 477.556 466.088 456.131 458.588 465.195C451.09 474.26 497.752 488.27 558.281 489.094C618.811 489.917 630.376 442.947 684.08 436.354C737.784 429.761 791.487 406.688 810.49 319.336C829.494 231.987 797.271 185.24 748.525 209.025Z" fill="url(#paint16_linear_40_25969)"/>
        <path d="M21.1507 231.234C21.1507 231.234 71.5486 286.386 82.2905 351.048C93.031 415.711 144.693 411.59 162.238 442.081C179.782 472.57 221.596 475.043 240.761 487.404C259.925 499.765 303.587 478.34 311.087 487.404C318.586 496.469 271.924 510.478 211.394 511.302C150.864 512.126 139.3 465.154 85.5954 458.563C31.8926 451.97 -21.8128 428.896 -40.8146 341.546C-59.8189 254.195 -27.5959 207.448 21.1507 231.234Z" fill="url(#paint17_linear_40_25969)"/>
    </g>
    <defs>
        <linearGradient id="paint0_linear_40_25969" x1="512.539" y1="299.502" x2="522.402" y2="457.722" gradientUnits="userSpaceOnUse">
            <stop stop-color="#FCAF17"/>
            <stop offset="1" stop-color="#F47920"/>
        </linearGradient>
        <linearGradient id="paint1_linear_40_25969" x1="136.94" y1="256.689" x2="138.07" y2="245.976" gradientUnits="userSpaceOnUse">
            <stop stop-color="#FBC4AF"/>
            <stop offset="1" stop-color="#EA8B69"/>
        </linearGradient>
        <linearGradient id="paint2_linear_40_25969" x1="151.255" y1="253.106" x2="141.341" y2="253.831" gradientUnits="userSpaceOnUse">
            <stop stop-color="#FBC4AF"/>
            <stop offset="1" stop-color="#EA8B69"/>
        </linearGradient>
        <linearGradient id="paint3_linear_40_25969" x1="138.276" y1="293.47" x2="147.32" y2="260.907" gradientUnits="userSpaceOnUse">
            <stop stop-color="#FBC4AF"/>
            <stop offset="1" stop-color="#EA8B69"/>
        </linearGradient>
        <linearGradient id="paint4_linear_40_25969" x1="500.887" y1="174.126" x2="501.298" y2="164.702" gradientUnits="userSpaceOnUse">
            <stop stop-color="#FBC4AF"/>
            <stop offset="1" stop-color="#EA8B69"/>
        </linearGradient>
        <linearGradient id="paint5_linear_40_25969" x1="502.721" y1="178.134" x2="502.413" y2="171.439" gradientUnits="userSpaceOnUse">
            <stop stop-color="#FBC4AF"/>
            <stop offset="1" stop-color="#EA8B69"/>
        </linearGradient>
        <linearGradient id="paint6_linear_40_25969" x1="482.003" y1="228.675" x2="489.401" y2="180.462" gradientUnits="userSpaceOnUse">
            <stop stop-color="#FBC4AF"/>
            <stop offset="1" stop-color="#EA8B69"/>
        </linearGradient>
        <linearGradient id="paint7_linear_40_25969" x1="523.604" y1="170.529" x2="529.358" y2="200.956" gradientUnits="userSpaceOnUse">
            <stop stop-color="#FBC4AF"/>
            <stop offset="1" stop-color="#EA8B69"/>
        </linearGradient>
        <linearGradient id="paint8_linear_40_25969" x1="359.573" y1="125.654" x2="363.173" y2="133.325" gradientUnits="userSpaceOnUse">
            <stop stop-color="#FBC4AF"/>
            <stop offset="1" stop-color="#EA8B69"/>
        </linearGradient>
        <linearGradient id="paint9_linear_40_25969" x1="354.09" y1="125.464" x2="363.068" y2="129.24" gradientUnits="userSpaceOnUse">
            <stop stop-color="#FBC4AF"/>
            <stop offset="1" stop-color="#EA8B69"/>
        </linearGradient>
        <linearGradient id="paint10_linear_40_25969" x1="359.246" y1="122.58" x2="365.005" y2="134.849" gradientUnits="userSpaceOnUse">
            <stop stop-color="#FBC4AF"/>
            <stop offset="1" stop-color="#EA8B69"/>
        </linearGradient>
        <linearGradient id="paint11_linear_40_25969" x1="441.599" y1="134.711" x2="425.229" y2="154.22" gradientUnits="userSpaceOnUse">
            <stop stop-color="#FBC4AF"/>
            <stop offset="1" stop-color="#EA8B69"/>
        </linearGradient>
        <linearGradient id="paint12_linear_40_25969" x1="395.674" y1="164.385" x2="393.927" y2="143.988" gradientUnits="userSpaceOnUse">
            <stop stop-color="#FBC4AF"/>
            <stop offset="1" stop-color="#EA8B69"/>
        </linearGradient>
        <linearGradient id="paint13_linear_40_25969" x1="392.671" y1="164.544" x2="393.493" y2="159.29" gradientUnits="userSpaceOnUse">
            <stop stop-color="#FBC4AF"/>
            <stop offset="1" stop-color="#EA8B69"/>
        </linearGradient>
        <linearGradient id="paint14_linear_40_25969" x1="696.515" y1="51.8074" x2="418.157" y2="116.403" gradientUnits="userSpaceOnUse">
            <stop stop-color="white" stop-opacity="0"/>
            <stop offset="1" stop-color="#9DC2E7"/>
        </linearGradient>
        <linearGradient id="paint15_linear_40_25969" x1="143.922" y1="59.2539" x2="353.652" y2="252.89" gradientUnits="userSpaceOnUse">
            <stop stop-color="white" stop-opacity="0"/>
            <stop offset="1" stop-color="#9DC2E7"/>
        </linearGradient>
        <linearGradient id="paint16_linear_40_25969" x1="725.477" y1="333.043" x2="325.915" y2="425.765" gradientUnits="userSpaceOnUse">
            <stop stop-color="white" stop-opacity="0"/>
            <stop offset="1" stop-color="#9DC2E7"/>
        </linearGradient>
        <linearGradient id="paint17_linear_40_25969" x1="44.1986" y1="355.249" x2="443.761" y2="447.971" gradientUnits="userSpaceOnUse">
            <stop stop-color="white" stop-opacity="0"/>
            <stop offset="1" stop-color="#9DC2E7"/>
        </linearGradient>
        <clipPath id="clip0_40_25969">
            <rect width="746" height="529" fill="white"/>
        </clipPath>
    </defs>
</svg>
